<svg id="Ebene_1" data-name="Ebene 1" xmlns="http://www.w3.org/2000/svg" viewBox="0 0 349.98 112.41"><title>logo-gesundheits-coach-light</title><path d="M50.45,38.1C55,41.57,62.08,40,66.22,34.51s3.78-12.68-.8-16.15-11.63-1.87-15.77,3.58S45.87,34.63,50.45,38.1Z" transform="translate(-0.03 -6.21)" style="fill:#eee"/><path d="M40.07,16.53C21.6,80.87,29.89,93.63,59.54,117.9,41.39,97,49.73,83.09,57.93,71.53c9.36-13.17,46-35,47.87-65.32C93.68,33.34,34.67,79.05,40.07,16.53Z" transform="translate(-0.03 -6.21)" style="fill:#eee"/><path d="M64.31,116.65c-.73-7.19,1-12.94,4.15-19.23,6.41-13-3.89-26.8-3.89-26.8a121.23,121.23,0,0,1-9.8,12c-10.42,12,3.66,29.94,5.52,32.63-3.49-15.58-1.38-22.79-1.38-22.79S59.63,108.81,64.31,116.65Z" transform="translate(-0.03 -6.21)" style="fill:#eee"/><path d="M37.63,102.53a72.73,72.73,0,0,1-10-6.48C7.26,80.26-1,56.81,9.1,43.69c5.05-6.53,13.73-9.27,23.68-8.44.28-1.23.56-2.49.85-3.78C21.54,30.52,11,34,5,42-6.85,57.8,3.22,85.37,27.5,103.59a78.16,78.16,0,0,0,26.08,13C47.1,111.39,41.77,107.08,37.63,102.53Z" transform="translate(-0.03 -6.21)" style="fill:#eee"/><path d="M81,55.8c-1.61,1.49-3.17,2.92-4.7,4.3C87.65,74.31,90.89,90.71,83,100.89c-3.78,4.87-9.57,7.63-16.4,8.37-.14,5.14.9,7.9,1.91,9.36C78.8,118.53,87.59,115,92.89,108,102.83,94.7,97.34,73.15,81,55.8Z" transform="translate(-0.03 -6.21)" style="fill:#eee"/><path d="M116.84,48.41h8.5v.69a10.54,10.54,0,0,1-2.75,7.68,10,10,0,0,1-7.54,2.82,11.63,11.63,0,0,1-2.76-.31,10.6,10.6,0,0,1-2.43-.9,9.75,9.75,0,0,1-3.92-3.85A11.19,11.19,0,0,1,104.56,49a12.59,12.59,0,0,1,.83-4.66,10.25,10.25,0,0,1,2.48-3.65,9.36,9.36,0,0,1,3.24-2,12.74,12.74,0,0,1,9.24.4A9.19,9.19,0,0,1,124,42.3l-2.06,1.64a7.21,7.21,0,0,0-6.63-3.74,7.57,7.57,0,0,0-5.83,2.42A9,9,0,0,0,107.21,49a8.39,8.39,0,0,0,2.27,6,7.68,7.68,0,0,0,5.8,2.37,7.38,7.38,0,0,0,5.16-1.88,7.12,7.12,0,0,0,2.29-4.9h-5.89Z" transform="translate(-0.03 -6.21)" style="fill:#eee"/><path d="M134.74,59.05V38.44h10.87v2.24h-8.42v5.91h8.42v2.28h-8.42v7.9h8.42v2.28Z" transform="translate(-0.03 -6.21)" style="fill:#eee"/><path d="M163,47.6a7,7,0,0,1,3,2.29,5.52,5.52,0,0,1,1,3.36,6,6,0,0,1-1.81,4.58,7.41,7.41,0,0,1-8.87.5,6.22,6.22,0,0,1-2.23-3.55l2.23-1.09a5.51,5.51,0,0,0,1.48,2.83,3.69,3.69,0,0,0,2.6,1,4.19,4.19,0,0,0,3-1.07,3.6,3.6,0,0,0,1.14-2.76,3.78,3.78,0,0,0-.8-2.4,6,6,0,0,0-2.4-1.73l-2.51-1.07a7.11,7.11,0,0,1-3.06-2.21,5.3,5.3,0,0,1-1-3.24,4.64,4.64,0,0,1,1.64-3.63A6.06,6.06,0,0,1,160.65,38a6.31,6.31,0,0,1,3.21.78A5.35,5.35,0,0,1,166,41.06l-2,1.29a5.27,5.27,0,0,0-1.54-1.78,3.4,3.4,0,0,0-2-.58,3.14,3.14,0,0,0-2.26.84,3,3,0,0,0-.2,4.06,5.59,5.59,0,0,0,2.1,1.42Z" transform="translate(-0.03 -6.21)" style="fill:#eee"/><path d="M176,38.44h2.48V51.26a6.64,6.64,0,0,0,1.33,4.59,6.66,6.66,0,0,0,8.35,0,6.64,6.64,0,0,0,1.33-4.59V38.44H192V51.26c0,2.79-.67,4.87-2,6.26s-3.33,2.08-6,2.08-4.67-.69-6-2.08-2-3.47-2-6.26Z" transform="translate(-0.03 -6.21)" style="fill:#eee"/><path d="M202.66,59.05V37.62l15.08,16.47V38.44h2.34V59.85L205,43.56V59.05Z" transform="translate(-0.03 -6.21)" style="fill:#eee"/><path d="M230.77,59.05V38.44h4a29.86,29.86,0,0,1,6.19.44,8.35,8.35,0,0,1,3.14,1.49,8.55,8.55,0,0,1,2.69,3.49,13.52,13.52,0,0,1,0,9.78,8.58,8.58,0,0,1-5.77,5,23.62,23.62,0,0,1-5.37.44H230.8Zm2.48-2.31h1.56a27.35,27.35,0,0,0,5.27-.33,5.81,5.81,0,0,0,2.44-1.13,6.67,6.67,0,0,0,1.92-2.73,10,10,0,0,0,.67-3.82,10.33,10.33,0,0,0-.66-3.81,6.69,6.69,0,0,0-1.93-2.71A5.93,5.93,0,0,0,240,41.05a27,27,0,0,0-5.23-.34h-1.56Z" transform="translate(-0.03 -6.21)" style="fill:#eee"/><path d="M257.45,59.05V38.44h2.45v7.93h11V38.44h2.49V59.05H270.9V48.7h-11V59.05Z" transform="translate(-0.03 -6.21)" style="fill:#eee"/><path d="M284,59.05V38.44h10.87v2.24h-8.42v5.91h8.42v2.28h-8.42v7.9h8.42v2.28Z" transform="translate(-0.03 -6.21)" style="fill:#eee"/><path d="M304.86,59.05V38.44h2.45V59.05Z" transform="translate(-0.03 -6.21)" style="fill:#eee"/><path d="M321.66,59.05V40.78h-5.83V38.44h14.11v2.34h-5.8V59.05Z" transform="translate(-0.03 -6.21)" style="fill:#eee"/><path d="M346,47.6a7,7,0,0,1,3,2.29,5.52,5.52,0,0,1,1,3.36,6,6,0,0,1-1.81,4.58,7.42,7.42,0,0,1-8.88.5,6.15,6.15,0,0,1-2.22-3.55l2.22-1.09a5.49,5.49,0,0,0,1.49,2.83,3.59,3.59,0,0,0,2.6,1,4.19,4.19,0,0,0,3-1.07,3.6,3.6,0,0,0,1.14-2.76,3.79,3.79,0,0,0-.79-2.4,6,6,0,0,0-2.4-1.73l-2.51-1.07a7.11,7.11,0,0,1-3.06-2.21,5.3,5.3,0,0,1-1-3.24,4.64,4.64,0,0,1,1.63-3.63A6.07,6.07,0,0,1,343.55,38a6.37,6.37,0,0,1,3.22.78,5.43,5.43,0,0,1,2.12,2.33l-2,1.29a5.41,5.41,0,0,0-1.55-1.78A3.35,3.35,0,0,0,343.4,40a3.14,3.14,0,0,0-2.26.84,3.06,3.06,0,0,0-.21,4.06,5.79,5.79,0,0,0,2.1,1.42Z" transform="translate(-0.03 -6.21)" style="fill:#eee"/><path d="M182.21,75.41A10.18,10.18,0,0,0,179.06,73a8.78,8.78,0,0,0-3.71-.76,8.25,8.25,0,0,0-5.88,2.5,8.41,8.41,0,0,0-1.78,2.74,9.3,9.3,0,0,0-.59,3.34,9.46,9.46,0,0,0,.35,2.65,7.63,7.63,0,0,0,1.06,2.23,8.73,8.73,0,0,0,3.05,2.71,8.54,8.54,0,0,0,7.57.13,9.6,9.6,0,0,0,3.08-2.44v3.26a11.69,11.69,0,0,1-3.3,1.68,12,12,0,0,1-3.66.57,10.4,10.4,0,0,1-3.18-.49,10.82,10.82,0,0,1-2.9-1.41,10.5,10.5,0,0,1-4.63-8.85,11.28,11.28,0,0,1,.8-4.33A10.59,10.59,0,0,1,167.76,73a10.77,10.77,0,0,1,3.5-2.27,11.51,11.51,0,0,1,7.64-.21,12.44,12.44,0,0,1,3.31,1.68Z" transform="translate(-0.03 -6.21)" style="fill:#eee"/><path d="M213.25,80.83a10.61,10.61,0,0,1-.82,4.16,10.14,10.14,0,0,1-2.38,3.48,11.15,11.15,0,0,1-3.6,2.35,11.28,11.28,0,0,1-4.22.82,11.16,11.16,0,0,1-7.79-3.17,10.66,10.66,0,0,1-.25-15.07l.25-.25A10.8,10.8,0,0,1,198,70.83a11.29,11.29,0,0,1,8.45,0A11,11,0,0,1,210,73.15a10.57,10.57,0,0,1,2.38,3.49A10.77,10.77,0,0,1,213.25,80.83Zm-11,8.5a8.08,8.08,0,0,0,3.22-.64,8.64,8.64,0,0,0,2.76-1.87,8.39,8.39,0,0,0,2.48-6,8.89,8.89,0,0,0-.64-3.3A8.46,8.46,0,0,0,199,72.93a8,8,0,0,0-2.72,1.84,8.26,8.26,0,0,0-1.85,2.78,8.82,8.82,0,0,0,0,6.51,8.46,8.46,0,0,0,1.86,2.76,8,8,0,0,0,5.94,2.51Z" transform="translate(-0.03 -6.21)" style="fill:#eee"/><path d="M229,69.66l9.37,21.43h-2.66L233,84.77h-8l-2.67,6.32h-2.66Zm0,5.42-3.28,7.59h6.56Z" transform="translate(-0.03 -6.21)" style="fill:#eee"/><path d="M262.52,75.41A9.92,9.92,0,0,0,259.36,73a8.73,8.73,0,0,0-3.7-.76,8.13,8.13,0,0,0-3.19.66,8,8,0,0,0-2.69,1.84A8.38,8.38,0,0,0,248,77.51a9.3,9.3,0,0,0-.59,3.34,9.46,9.46,0,0,0,.35,2.65,7.63,7.63,0,0,0,1.06,2.23,8.43,8.43,0,0,0,10.61,2.84,9.53,9.53,0,0,0,3.09-2.44v3.26a11.74,11.74,0,0,1-7,2.25,10.4,10.4,0,0,1-3.18-.49,10.82,10.82,0,0,1-2.9-1.41,10.5,10.5,0,0,1-4.63-8.86,11.46,11.46,0,0,1,.79-4.33,11.06,11.06,0,0,1,6-5.82,11.55,11.55,0,0,1,4.19-.76,11.28,11.28,0,0,1,3.46.55,12.44,12.44,0,0,1,3.31,1.68Z" transform="translate(-0.03 -6.21)" style="fill:#eee"/><path d="M272.47,91.09V70.48h2.45V78.4h10.95V70.48h2.49V91.09h-2.49V80.74H274.92V91.09Z" transform="translate(-0.03 -6.21)" style="fill:#eee"/><rect x="127.43" y="57.85" width="204.71" height="0.98" style="fill:#eee"/><path d="M140,106.46v-6h3.14v.65h-2.43v1.71h2.43v.66h-2.43v2.28h2.43v.66Z" transform="translate(-0.03 -6.21)" style="fill:#eee"/><path d="M149.32,106.46v-3.73h.57v.78a1.83,1.83,0,0,1,.54-.69,1.21,1.21,0,0,1,.71-.21.81.81,0,0,1,.22,0l.21,0-.21.58-.21-.06H151a.83.83,0,0,0-.75.37,1.82,1.82,0,0,0-.26,1.09v1.82Z" transform="translate(-0.03 -6.21)" style="fill:#eee"/><path d="M157.24,106.46v-3.73h.62v.58a1.41,1.41,0,0,1,.58-.53,1.63,1.63,0,0,1,.78-.18,1.46,1.46,0,0,1,1,.35,1.29,1.29,0,0,1,.37,1v2.54H160v-2.2a1.26,1.26,0,0,0-.24-.84.93.93,0,0,0-.74-.27,1.25,1.25,0,0,0-.51.1,1,1,0,0,0-.39.3.87.87,0,0,0-.17.33,2.36,2.36,0,0,0,0,.65v1.93Z" transform="translate(-0.03 -6.21)" style="fill:#eee"/><path d="M170.34,102.73v3.73h-.62v-.68a1.62,1.62,0,0,1-.57.62,1.55,1.55,0,0,1-.78.21,1.63,1.63,0,0,1-1.29-.55,2.44,2.44,0,0,1,0-2.92,1.62,1.62,0,0,1,1.27-.54,1.47,1.47,0,0,1,1.37.83v-.7Zm-.62,1.9a1.42,1.42,0,0,0-.34-1,1.27,1.27,0,0,0-1.79,0,1.4,1.4,0,0,0-.32,1,1.5,1.5,0,0,0,.32,1,1.3,1.3,0,0,0,1.81,0A1.36,1.36,0,0,0,169.72,104.63Zm-2.32-3.15a.43.43,0,0,1,.14-.32.46.46,0,0,1,.33-.13.42.42,0,0,1,.32.13.48.48,0,0,1,.13.32.46.46,0,0,1-.13.33.39.39,0,0,1-.32.13.43.43,0,0,1-.34-.13A.51.51,0,0,1,167.4,101.48Zm1.49,0a.44.44,0,0,1,.43-.45h0a.42.42,0,0,1,.32.13.43.43,0,0,1,.14.32.44.44,0,0,1-.42.46h0a.39.39,0,0,1-.32-.13A.46.46,0,0,1,168.89,101.48Z" transform="translate(-0.03 -6.21)" style="fill:#eee"/><path d="M176.61,106.46v-6.31h.63v3.16a1.53,1.53,0,0,1,.57-.53,1.75,1.75,0,0,1,.78-.18,1.46,1.46,0,0,1,1,.35,1.25,1.25,0,0,1,.37,1v2.54h-.65v-2.2a1.26,1.26,0,0,0-.24-.84.94.94,0,0,0-.73-.27,1.3,1.3,0,0,0-.52.1,1.14,1.14,0,0,0-.39.3,1,1,0,0,0-.17.33,3.53,3.53,0,0,0,0,.65v1.93Z" transform="translate(-0.03 -6.21)" style="fill:#eee"/><path d="M186.26,106.46v-3.73h.57v.78a1.83,1.83,0,0,1,.54-.69,1.16,1.16,0,0,1,.7-.21.81.81,0,0,1,.22,0l.22,0-.22.58-.2-.06h-.19a.85.85,0,0,0-.76.37,1.89,1.89,0,0,0-.25,1.09v1.82Z" transform="translate(-0.03 -6.21)" style="fill:#eee"/><path d="M194.77,102.73v1.83a2,2,0,0,0,.24,1.13,1,1,0,0,0,.8.31.93.93,0,0,0,.8-.31,2,2,0,0,0,.24-1.13v-1.83h.65v2.18a1.74,1.74,0,0,1-.43,1.27,1.7,1.7,0,0,1-1.27.43,1.67,1.67,0,0,1-1.26-.43,1.7,1.7,0,0,1-.43-1.27v-2.18Z" transform="translate(-0.03 -6.21)" style="fill:#eee"/><path d="M203.73,106.46v-3.73h.62v.58a1.41,1.41,0,0,1,.58-.53,1.63,1.63,0,0,1,.78-.18,1.46,1.46,0,0,1,1,.35,1.25,1.25,0,0,1,.37,1v2.54h-.65v-2.2a1.26,1.26,0,0,0-.24-.84.94.94,0,0,0-.73-.27,1.3,1.3,0,0,0-.52.1,1,1,0,0,0-.39.3.87.87,0,0,0-.17.33,3.53,3.53,0,0,0,0,.65v1.93Z" transform="translate(-0.03 -6.21)" style="fill:#eee"/><path d="M216.83,102.73v3.66a2.76,2.76,0,0,1-.08.86,1.08,1.08,0,0,1-.27.46,1.49,1.49,0,0,1-.63.42,2.56,2.56,0,0,1-.87.14,2,2,0,0,1-1.32-.39,1.38,1.38,0,0,1-.49-1.09h.71a.81.81,0,0,0,.29.65,1.32,1.32,0,0,0,.82.22,1.47,1.47,0,0,0,.65-.12,1,1,0,0,0,.42-.37,1.75,1.75,0,0,0,.12-.32,4.69,4.69,0,0,0,0-.53v-.62a1.47,1.47,0,0,1-1.35.82,1.66,1.66,0,0,1-1.29-.54,2.13,2.13,0,0,1-.49-1.45,2,2,0,0,1,.48-1.44,1.62,1.62,0,0,1,1.27-.54,1.57,1.57,0,0,1,.82.21,1.44,1.44,0,0,1,.55.62v-.7Zm-.62,1.88a1.42,1.42,0,0,0-.34-1,1.26,1.26,0,0,0-1.78,0h0a1.45,1.45,0,0,0-.32,1,1.57,1.57,0,0,0,.32,1,1.18,1.18,0,0,0,.92.36,1.11,1.11,0,0,0,.89-.36A1.4,1.4,0,0,0,216.21,104.61Z" transform="translate(-0.03 -6.21)" style="fill:#eee"/><path d="M231.17,102.73v1.83a2,2,0,0,0,.24,1.13,1,1,0,0,0,.8.31.93.93,0,0,0,.8-.31,2,2,0,0,0,.24-1.13v-1.83h.65v2.18a1.74,1.74,0,0,1-.43,1.27,1.7,1.7,0,0,1-1.27.43,1.67,1.67,0,0,1-1.26-.43,1.7,1.7,0,0,1-.43-1.27v-2.18Z" transform="translate(-0.03 -6.21)" style="fill:#eee"/><path d="M240.13,106.46v-3.73h.62v.58a1.41,1.41,0,0,1,.58-.53,1.63,1.63,0,0,1,.78-.18,1.46,1.46,0,0,1,1,.35,1.25,1.25,0,0,1,.37,1v2.54h-.65v-2.2a1.26,1.26,0,0,0-.24-.84.94.94,0,0,0-.73-.27,1.3,1.3,0,0,0-.52.1,1,1,0,0,0-.39.3.87.87,0,0,0-.17.33,2.81,2.81,0,0,0-.05.65v1.93Z" transform="translate(-0.03 -6.21)" style="fill:#eee"/><path d="M253.23,100.15v6.31h-.61v-.68a1.62,1.62,0,0,1-.57.62,1.56,1.56,0,0,1-.79.21,1.63,1.63,0,0,1-1.29-.55,2.42,2.42,0,0,1,0-2.91,1.6,1.6,0,0,1,1.28-.55,1.56,1.56,0,0,1,.81.21,1.65,1.65,0,0,1,.55.62v-3.28Zm-.61,4.46a1.41,1.41,0,0,0-.35-1,1.2,1.2,0,0,0-.91-.38,1.13,1.13,0,0,0-.88.35,1.3,1.3,0,0,0-.32,1,1.66,1.66,0,0,0,.32,1.08,1.09,1.09,0,0,0,.89.39,1.16,1.16,0,0,0,.91-.37A1.48,1.48,0,0,0,252.62,104.61Z" transform="translate(-0.03 -6.21)" style="fill:#eee"/><path d="M267.05,106.46v-6h3.14v.65h-2.43v1.71h2.43v.66h-2.43v2.94Z" transform="translate(-0.03 -6.21)" style="fill:#eee"/><path d="M275.94,100.94a.47.47,0,0,1,.14-.33.46.46,0,0,1,.33-.13.43.43,0,0,1,.32.14.4.4,0,0,1,.14.33.42.42,0,0,1-.13.32.47.47,0,0,1-.8-.33Zm.15,5.52v-3.73h.64v3.73Z" transform="translate(-0.03 -6.21)" style="fill:#eee"/><path d="M283.17,103.26h-.68v-.53h.68v-1.5h.65v1.5h.68v.53h-.68v3.2h-.65Z" transform="translate(-0.03 -6.21)" style="fill:#eee"/><path d="M290.23,106.46v-3.73h.62v.58a1.41,1.41,0,0,1,.58-.53,1.63,1.63,0,0,1,.78-.18,1.46,1.46,0,0,1,1,.35,1.29,1.29,0,0,1,.37,1v2.54H293v-2.2a1.26,1.26,0,0,0-.24-.84,1,1,0,0,0-.74-.27,1.25,1.25,0,0,0-.51.1,1,1,0,0,0-.39.3.87.87,0,0,0-.17.33,2.81,2.81,0,0,0-.05.65v1.93Z" transform="translate(-0.03 -6.21)" style="fill:#eee"/><path d="M303.19,104.69h-2.95v.06a1.31,1.31,0,0,0,.34,1,1.15,1.15,0,0,0,.89.37,1.26,1.26,0,0,0,.68-.2,1.83,1.83,0,0,0,.53-.61l.48.33a1.92,1.92,0,0,1-.71.76,2,2,0,0,1-1,.25,1.76,1.76,0,0,1-1.37-.56,2.09,2.09,0,0,1-.53-1.47,2,2,0,0,1,.52-1.43,1.78,1.78,0,0,1,1.34-.56,1.71,1.71,0,0,1,1.31.53,2,2,0,0,1,.48,1.44Zm-.68-.52a1.08,1.08,0,0,0-.33-.75,1.15,1.15,0,0,0-.81-.27,1.1,1.1,0,0,0-1.13,1Z" transform="translate(-0.03 -6.21)" style="fill:#eee"/><path d="M308.75,105.83l.55-.37a1.13,1.13,0,0,0,.39.45,1,1,0,0,0,.56.15.75.75,0,0,0,.5-.16.48.48,0,0,0,.2-.4.47.47,0,0,0-.14-.33,1.22,1.22,0,0,0-.45-.24h-.11q-1.35-.47-1.35-1.17a1,1,0,0,1,.36-.81,1.38,1.38,0,0,1,.95-.31,1.61,1.61,0,0,1,.83.19,1.12,1.12,0,0,1,.5.55l-.52.32a.92.92,0,0,0-.33-.4,1.07,1.07,0,0,0-.52-.14.7.7,0,0,0-.46.16.54.54,0,0,0-.17.4c0,.23.24.42.74.58l.22.06a2.08,2.08,0,0,1,.84.45,1,1,0,0,1,.24.66,1.1,1.1,0,0,1-.38.86,1.4,1.4,0,0,1-1,.32,1.8,1.8,0,0,1-.88-.19A1.45,1.45,0,0,1,308.75,105.83Z" transform="translate(-0.03 -6.21)" style="fill:#eee"/><path d="M317.14,105.83l.55-.37a1.13,1.13,0,0,0,.39.45,1,1,0,0,0,.56.15.75.75,0,0,0,.5-.16.48.48,0,0,0,.2-.4.47.47,0,0,0-.14-.33,1.09,1.09,0,0,0-.45-.24h-.11q-1.35-.47-1.35-1.17a1,1,0,0,1,.36-.81,1.39,1.39,0,0,1,1-.31,1.61,1.61,0,0,1,.83.19,1.12,1.12,0,0,1,.5.55l-.52.32a.92.92,0,0,0-.33-.4,1.07,1.07,0,0,0-.52-.14.7.7,0,0,0-.46.16.54.54,0,0,0-.17.4c0,.23.24.42.74.58l.22.06a2.08,2.08,0,0,1,.84.45,1,1,0,0,1,.24.66,1.1,1.1,0,0,1-.38.86,1.4,1.4,0,0,1-1,.32,1.8,1.8,0,0,1-.88-.19A1.45,1.45,0,0,1,317.14,105.83Z" transform="translate(-0.03 -6.21)" style="fill:#eee"/></svg>