<svg id="Ebene_1" data-name="Ebene 1" xmlns="http://www.w3.org/2000/svg" viewBox="0 0 350 120"><title>logo-gesundheits-coach</title><path d="M50.45,38.1C55,41.57,62.08,40,66.22,34.51s3.78-12.68-.8-16.15-11.63-1.87-15.77,3.58S45.87,34.63,50.45,38.1Z" style="fill:#0396d2"/><path d="M40.07,16.53C21.6,80.87,29.89,93.63,59.54,117.9,41.39,97,49.73,83.09,57.93,71.53c9.36-13.17,46-35,47.87-65.32C93.68,33.34,34.67,79.05,40.07,16.53Z" style="fill:#0396d2"/><path d="M64.31,116.65c-.73-7.19,1-12.94,4.15-19.23,6.41-13-3.89-26.8-3.89-26.8a120.3,120.3,0,0,1-9.8,12c-10.42,12,3.66,29.94,5.52,32.63-3.49-15.58-1.38-22.79-1.38-22.79S59.63,108.81,64.31,116.65Z" style="fill:#93c04b"/><path d="M37.63,102.53a72.92,72.92,0,0,1-10-6.48C7.26,80.26-1,56.81,9.1,43.69c5.05-6.53,13.73-9.27,23.68-8.44.28-1.23.56-2.49.85-3.78C21.54,30.52,11,34,5,42c-11.85,15.8-1.78,43.37,22.5,61.59a78,78,0,0,0,26.08,13C47.1,111.39,41.77,107.08,37.63,102.53Z" style="fill:#93c04b"/><path d="M81,55.8q-2.41,2.23-4.7,4.3C87.65,74.31,90.89,90.71,83,100.89c-3.78,4.87-9.57,7.63-16.4,8.37-.14,5.14.9,7.9,1.91,9.36C78.8,118.53,87.59,115,92.89,108,102.83,94.7,97.34,73.15,81,55.8Z" style="fill:#93c04b"/><path d="M116.84,48.41h8.5v.69a10.53,10.53,0,0,1-2.75,7.68,10.08,10.08,0,0,1-7.54,2.82,11.79,11.79,0,0,1-2.76-.31,10.33,10.33,0,0,1-2.43-.9,9.82,9.82,0,0,1-3.92-3.85A11.21,11.21,0,0,1,104.56,49a12.56,12.56,0,0,1,.83-4.66,10.13,10.13,0,0,1,2.48-3.65,9.33,9.33,0,0,1,3.24-2,11.8,11.8,0,0,1,4.08-.68,11.54,11.54,0,0,1,5.16,1.08A9.22,9.22,0,0,1,124,42.3l-2.06,1.64a7.7,7.7,0,0,0-2.77-2.81,7.79,7.79,0,0,0-3.86-.93,7.57,7.57,0,0,0-5.83,2.42A9,9,0,0,0,107.21,49a8.39,8.39,0,0,0,2.27,6,7.7,7.7,0,0,0,5.8,2.37,7.4,7.4,0,0,0,5.16-1.88,7.12,7.12,0,0,0,2.29-4.9h-5.89Z" style="fill:#0396d2"/><path d="M134.74,59.05V38.44h10.87v2.24h-8.42v5.91h8.42v2.28h-8.42v7.9h8.42v2.28Z" style="fill:#0396d2"/><path d="M163,47.6a7,7,0,0,1,3,2.29,5.58,5.58,0,0,1,1,3.36,6,6,0,0,1-1.81,4.58,7.4,7.4,0,0,1-8.87.5,6.19,6.19,0,0,1-2.23-3.55l2.23-1.09a5.49,5.49,0,0,0,1.48,2.83,3.64,3.64,0,0,0,2.6,1,4.21,4.21,0,0,0,3-1.07,3.59,3.59,0,0,0,1.14-2.76,3.79,3.79,0,0,0-.8-2.4,6.06,6.06,0,0,0-2.4-1.73l-2.51-1.07a7.1,7.1,0,0,1-3.06-2.21,5.28,5.28,0,0,1-1-3.24,4.64,4.64,0,0,1,1.64-3.63A6.07,6.07,0,0,1,160.65,38a6.33,6.33,0,0,1,3.21.78A5.35,5.35,0,0,1,166,41.06l-2,1.29a5.29,5.29,0,0,0-1.54-1.78,3.41,3.41,0,0,0-1.95-.58,3.14,3.14,0,0,0-2.26.84,3,3,0,0,0-.2,4.06,5.66,5.66,0,0,0,2.1,1.42Z" style="fill:#0396d2"/><path d="M176,38.44h2.48V51.26a6.64,6.64,0,0,0,1.33,4.59,6.66,6.66,0,0,0,8.35,0,6.64,6.64,0,0,0,1.33-4.59V38.44H192V51.26q0,4.18-2,6.26t-6,2.08q-4,0-6-2.08t-2-6.26Z" style="fill:#0396d2"/><path d="M202.66,59.05V37.62l15.08,16.47V38.44h2.34V59.85L205,43.56V59.05Z" style="fill:#0396d2"/><path d="M230.77,59.05V38.44h4a29.92,29.92,0,0,1,6.19.44,8.38,8.38,0,0,1,3.14,1.49,8.54,8.54,0,0,1,2.69,3.49,13.52,13.52,0,0,1,0,9.78,8.59,8.59,0,0,1-5.77,5,23.92,23.92,0,0,1-5.37.44h-4.85Zm2.48-2.31h1.56a28,28,0,0,0,5.27-.33,5.81,5.81,0,0,0,2.44-1.13,6.7,6.7,0,0,0,1.92-2.73,10.09,10.09,0,0,0,.67-3.82,10.21,10.21,0,0,0-.66-3.81,6.66,6.66,0,0,0-1.93-2.71A5.89,5.89,0,0,0,240,41.05a26.82,26.82,0,0,0-5.23-.34h-1.56Z" style="fill:#0396d2"/><path d="M257.45,59.05V38.44h2.45v7.93h11V38.44h2.49V59.05h-2.49V48.7h-11V59.05Z" style="fill:#0396d2"/><path d="M284,59.05V38.44h10.87v2.24h-8.42v5.91h8.42v2.28h-8.42v7.9h8.42v2.28Z" style="fill:#0396d2"/><path d="M304.86,59.05V38.44h2.45V59.05Z" style="fill:#0396d2"/><path d="M321.66,59.05V40.78h-5.83V38.44h14.11v2.34h-5.8V59.05Z" style="fill:#0396d2"/><path d="M346,47.6a7,7,0,0,1,3,2.29,5.58,5.58,0,0,1,1,3.36,6,6,0,0,1-1.81,4.58,7.42,7.42,0,0,1-8.88.5,6.18,6.18,0,0,1-2.22-3.55l2.22-1.09a5.5,5.5,0,0,0,1.49,2.83,3.63,3.63,0,0,0,2.6,1,4.19,4.19,0,0,0,3-1.07,3.59,3.59,0,0,0,1.14-2.76,3.79,3.79,0,0,0-.79-2.4,6.06,6.06,0,0,0-2.4-1.73l-2.51-1.07a7.1,7.1,0,0,1-3.06-2.21,5.28,5.28,0,0,1-1-3.24,4.63,4.63,0,0,1,1.63-3.63A6.07,6.07,0,0,1,343.55,38a6.37,6.37,0,0,1,3.22.78,5.41,5.41,0,0,1,2.12,2.33l-2,1.29a5.31,5.31,0,0,0-1.55-1.78,3.36,3.36,0,0,0-1.94-.58,3.14,3.14,0,0,0-2.26.84,3.06,3.06,0,0,0-.21,4.06,5.74,5.74,0,0,0,2.1,1.42Z" style="fill:#0396d2"/><path d="M182.21,75.41A10.08,10.08,0,0,0,179.06,73a8.86,8.86,0,0,0-3.71-.76,8.28,8.28,0,0,0-5.88,2.5,8.34,8.34,0,0,0-1.78,2.74,9.19,9.19,0,0,0-.59,3.34,9.65,9.65,0,0,0,.35,2.65,7.76,7.76,0,0,0,1.06,2.23,8.68,8.68,0,0,0,3.05,2.71,8.55,8.55,0,0,0,7.57.13,9.6,9.6,0,0,0,3.08-2.44v3.26a11.69,11.69,0,0,1-3.3,1.68,11.87,11.87,0,0,1-3.66.57,10.4,10.4,0,0,1-3.18-.49,10.67,10.67,0,0,1-2.9-1.41,10.54,10.54,0,0,1-3.44-3.85,10.7,10.7,0,0,1-1.19-5,11.21,11.21,0,0,1,.8-4.33A10.5,10.5,0,0,1,167.76,73a10.69,10.69,0,0,1,3.5-2.27,11.54,11.54,0,0,1,7.64-.21,12.46,12.46,0,0,1,3.31,1.68Z" style="fill:#0396d2"/><path d="M213.25,80.83a10.57,10.57,0,0,1-.82,4.16,10.29,10.29,0,0,1-2.38,3.48,11.1,11.1,0,0,1-3.6,2.35,11.32,11.32,0,0,1-4.22.82,11.15,11.15,0,0,1-7.79-3.17,10.66,10.66,0,0,1,0-15.32A10.94,10.94,0,0,1,198,70.83a11.08,11.08,0,0,1,4.21-.82,11.19,11.19,0,0,1,4.24.82,10.94,10.94,0,0,1,3.58,2.32,10.43,10.43,0,0,1,2.38,3.49A10.69,10.69,0,0,1,213.25,80.83Zm-11,8.5a8.19,8.19,0,0,0,3.22-.64,8.6,8.6,0,0,0,2.76-1.87,8.22,8.22,0,0,0,1.84-2.74,8.3,8.3,0,0,0,.64-3.25,8.74,8.74,0,0,0-.64-3.3,8.51,8.51,0,0,0-4.58-4.6,8.55,8.55,0,0,0-6.49,0,7.94,7.94,0,0,0-2.72,1.84,8.41,8.41,0,0,0-1.85,2.78,8.79,8.79,0,0,0,0,6.51,8.41,8.41,0,0,0,1.86,2.76A8.54,8.54,0,0,0,199,88.7,8.33,8.33,0,0,0,202.23,89.33Z" style="fill:#0396d2"/><path d="M229,69.66l9.37,21.43h-2.66l-2.67-6.32H225l-2.67,6.32h-2.66Zm0,5.42-3.28,7.59h6.56Z" style="fill:#0396d2"/><path d="M262.52,75.41A10,10,0,0,0,259.36,73a8.78,8.78,0,0,0-3.7-.76,8.1,8.1,0,0,0-3.19.66,8,8,0,0,0-2.69,1.84A8.34,8.34,0,0,0,248,77.51a9.19,9.19,0,0,0-.59,3.34,9.65,9.65,0,0,0,.35,2.65,7.76,7.76,0,0,0,1.06,2.23,8.59,8.59,0,0,0,3.05,2.71,8.53,8.53,0,0,0,7.56.13,9.53,9.53,0,0,0,3.09-2.44v3.26a11.75,11.75,0,0,1-7,2.25,10.35,10.35,0,0,1-3.18-.49,10.67,10.67,0,0,1-2.9-1.41,10.5,10.5,0,0,1-4.63-8.86,11.39,11.39,0,0,1,.79-4.33A10.39,10.39,0,0,1,248.07,73a10.65,10.65,0,0,1,3.49-2.27,11.4,11.4,0,0,1,4.19-.76,11.23,11.23,0,0,1,3.46.55,12.46,12.46,0,0,1,3.31,1.68Z" style="fill:#0396d2"/><path d="M272.47,91.09V70.48h2.45V78.4h10.95V70.48h2.49V91.09h-2.49V80.74H274.92V91.09Z" style="fill:#0396d2"/><rect x="127.46" y="64.06" width="204.71" height="0.98" style="fill:#93c04b"/><path d="M140,106.46v-6h3.14v.65h-2.43v1.71h2.43v.66h-2.43v2.28h2.43v.66Z" style="fill:#808181"/><path d="M149.32,106.46v-3.73h.57v.78a1.84,1.84,0,0,1,.54-.69,1.19,1.19,0,0,1,.71-.21.82.82,0,0,1,.22,0l.21.05-.21.58-.21-.06-.19,0a.83.83,0,0,0-.75.37,1.88,1.88,0,0,0-.26,1.09v1.82Z" style="fill:#808181"/><path d="M157.24,106.46v-3.73h.62v.58a1.46,1.46,0,0,1,.58-.53,1.61,1.61,0,0,1,.78-.18,1.46,1.46,0,0,1,1,.35,1.3,1.3,0,0,1,.37,1v2.54H160v-2.2a1.28,1.28,0,0,0-.24-.84.93.93,0,0,0-.74-.27,1.19,1.19,0,0,0-.51.1,1,1,0,0,0-.39.3.87.87,0,0,0-.17.33,2.54,2.54,0,0,0,0,.65v1.93Z" style="fill:#808181"/><path d="M170.34,102.73v3.73h-.62v-.68a1.64,1.64,0,0,1-.57.62,1.47,1.47,0,0,1-.78.21,1.64,1.64,0,0,1-1.29-.55,2.12,2.12,0,0,1-.49-1.45,2.15,2.15,0,0,1,.48-1.47,1.6,1.6,0,0,1,1.27-.54,1.46,1.46,0,0,1,1.37.83v-.7Zm-.62,1.9a1.44,1.44,0,0,0-.34-1,1.27,1.27,0,0,0-1.79,0,1.41,1.41,0,0,0-.32,1,1.49,1.49,0,0,0,.32,1,1.3,1.3,0,0,0,1.81,0A1.37,1.37,0,0,0,169.72,104.63Zm-2.32-3.15a.47.47,0,0,1,.14-.32.46.46,0,0,1,.33-.13.44.44,0,0,1,.32.13.48.48,0,0,1,.13.32.45.45,0,0,1-.13.33.41.41,0,0,1-.32.13.45.45,0,0,1-.34-.13A.49.49,0,0,1,167.4,101.48Zm1.49,0a.44.44,0,0,1,.45-.45.42.42,0,0,1,.32.13.41.41,0,0,1,.14.32.44.44,0,0,1-.46.46.41.41,0,0,1-.32-.13A.44.44,0,0,1,168.89,101.48Z" style="fill:#808181"/><path d="M176.61,106.46v-6.31h.63v3.16a1.51,1.51,0,0,1,.57-.53,1.66,1.66,0,0,1,.78-.18,1.44,1.44,0,0,1,1,.35,1.26,1.26,0,0,1,.37,1v2.54h-.65v-2.2a1.28,1.28,0,0,0-.24-.84.91.91,0,0,0-.73-.27,1.27,1.27,0,0,0-.52.1,1.14,1.14,0,0,0-.39.3,1,1,0,0,0-.17.33,3.11,3.11,0,0,0,0,.65v1.93Z" style="fill:#808181"/><path d="M186.26,106.46v-3.73h.57v.78a1.84,1.84,0,0,1,.54-.69,1.16,1.16,0,0,1,.7-.21.78.78,0,0,1,.22,0l.22.05-.22.58-.2-.06-.19,0a.85.85,0,0,0-.76.37,1.89,1.89,0,0,0-.25,1.09v1.82Z" style="fill:#808181"/><path d="M194.77,102.73v1.83a2,2,0,0,0,.24,1.13,1,1,0,0,0,.8.31.92.92,0,0,0,.8-.31,2,2,0,0,0,.24-1.13v-1.83h.65v2.18a1.76,1.76,0,0,1-.43,1.27,1.71,1.71,0,0,1-1.27.43,1.67,1.67,0,0,1-1.26-.43,1.71,1.71,0,0,1-.43-1.27v-2.18Z" style="fill:#808181"/><path d="M203.73,106.46v-3.73h.62v.58a1.46,1.46,0,0,1,.58-.53,1.61,1.61,0,0,1,.78-.18,1.46,1.46,0,0,1,1,.35,1.26,1.26,0,0,1,.37,1v2.54h-.65v-2.2a1.28,1.28,0,0,0-.24-.84.92.92,0,0,0-.73-.27,1.24,1.24,0,0,0-.52.1,1,1,0,0,0-.39.3.87.87,0,0,0-.17.33,3.11,3.11,0,0,0,0,.65v1.93Z" style="fill:#808181"/><path d="M216.83,102.73v3.66a2.93,2.93,0,0,1-.08.86,1.08,1.08,0,0,1-.27.46,1.52,1.52,0,0,1-.63.42,2.56,2.56,0,0,1-.87.14,2,2,0,0,1-1.32-.39,1.37,1.37,0,0,1-.49-1.09h.71v0a.8.8,0,0,0,.29.65,1.33,1.33,0,0,0,.82.22,1.57,1.57,0,0,0,.65-.12,1,1,0,0,0,.42-.37,1.33,1.33,0,0,0,.12-.32,3.51,3.51,0,0,0,0-.53v-.62a1.58,1.58,0,0,1-.56.61,1.51,1.51,0,0,1-.79.21,1.67,1.67,0,0,1-1.29-.54,2.12,2.12,0,0,1-.49-1.45,2.05,2.05,0,0,1,.48-1.44,1.61,1.61,0,0,1,1.27-.54,1.59,1.59,0,0,1,.82.21,1.46,1.46,0,0,1,.55.62v-.7Zm-.62,1.88a1.44,1.44,0,0,0-.34-1,1.26,1.26,0,0,0-1.79,0,1.42,1.42,0,0,0-.32,1,1.56,1.56,0,0,0,.32,1,1.18,1.18,0,0,0,.92.36,1.12,1.12,0,0,0,.89-.36A1.41,1.41,0,0,0,216.21,104.61Z" style="fill:#808181"/><path d="M231.17,102.73v1.83a2,2,0,0,0,.24,1.13,1,1,0,0,0,.8.31.92.92,0,0,0,.8-.31,2,2,0,0,0,.24-1.13v-1.83h.65v2.18a1.76,1.76,0,0,1-.43,1.27,1.71,1.71,0,0,1-1.27.43,1.69,1.69,0,0,1-1.26-.43,1.71,1.71,0,0,1-.43-1.27v-2.18Z" style="fill:#808181"/><path d="M240.13,106.46v-3.73h.62v.58a1.46,1.46,0,0,1,.58-.53,1.61,1.61,0,0,1,.78-.18,1.46,1.46,0,0,1,1,.35,1.26,1.26,0,0,1,.37,1v2.54h-.65v-2.2a1.28,1.28,0,0,0-.24-.84.92.92,0,0,0-.73-.27,1.24,1.24,0,0,0-.52.1,1,1,0,0,0-.39.3.87.87,0,0,0-.17.33,3.11,3.11,0,0,0-.05.65v1.93Z" style="fill:#808181"/><path d="M253.23,100.15v6.31h-.61v-.68a1.64,1.64,0,0,1-.57.62,1.53,1.53,0,0,1-.79.21,1.64,1.64,0,0,1-1.29-.55,2.42,2.42,0,0,1,0-2.91,1.61,1.61,0,0,1,1.28-.55,1.53,1.53,0,0,1,.81.21,1.59,1.59,0,0,1,.55.62v-3.28Zm-.61,4.46a1.43,1.43,0,0,0-.35-1,1.18,1.18,0,0,0-.91-.38,1.13,1.13,0,0,0-.88.35,1.32,1.32,0,0,0-.32,1,1.67,1.67,0,0,0,.32,1.08,1.08,1.08,0,0,0,.89.39,1.17,1.17,0,0,0,.91-.37A1.46,1.46,0,0,0,252.62,104.61Z" style="fill:#808181"/><path d="M267.05,106.46v-6h3.14v.65h-2.43v1.71h2.43v.66h-2.43v2.94Z" style="fill:#808181"/><path d="M275.94,100.94a.45.45,0,0,1,.14-.33.44.44,0,0,1,.33-.13.41.41,0,0,1,.32.14.42.42,0,0,1,.14.33.42.42,0,0,1-.13.32.47.47,0,0,1-.8-.33Zm.15,5.52v-3.73h.64v3.73Z" style="fill:#808181"/><path d="M283.17,103.26h-.68v-.53h.68v-1.5h.65v1.5h.68v.53h-.68v3.2h-.65Z" style="fill:#808181"/><path d="M290.23,106.46v-3.73h.62v.58a1.46,1.46,0,0,1,.58-.53,1.61,1.61,0,0,1,.78-.18,1.46,1.46,0,0,1,1,.35,1.3,1.3,0,0,1,.37,1v2.54H293v-2.2a1.28,1.28,0,0,0-.24-.84,1,1,0,0,0-.74-.27,1.19,1.19,0,0,0-.51.1,1,1,0,0,0-.39.3.87.87,0,0,0-.17.33,2.54,2.54,0,0,0-.05.65v1.93Z" style="fill:#808181"/><path d="M303.19,104.69h-2.95v.06a1.33,1.33,0,0,0,.34,1,1.16,1.16,0,0,0,.89.37,1.23,1.23,0,0,0,.68-.2,1.7,1.7,0,0,0,.53-.61l.48.33a1.94,1.94,0,0,1-.71.76,2,2,0,0,1-1,.25,1.76,1.76,0,0,1-1.37-.56,2.05,2.05,0,0,1-.53-1.47,2,2,0,0,1,.52-1.43,1.76,1.76,0,0,1,1.34-.56,1.69,1.69,0,0,1,1.31.53,2.05,2.05,0,0,1,.48,1.44Zm-.68-.52a1.07,1.07,0,0,0-.33-.75,1.17,1.17,0,0,0-.81-.27,1.09,1.09,0,0,0-1.13,1Z" style="fill:#808181"/><path d="M308.75,105.83l.55-.37a1.09,1.09,0,0,0,.39.45,1,1,0,0,0,.56.15.75.75,0,0,0,.5-.16.49.49,0,0,0,.2-.4.45.45,0,0,0-.14-.33,1.16,1.16,0,0,0-.45-.24l-.11,0q-1.35-.47-1.35-1.17a1,1,0,0,1,.36-.81,1.41,1.41,0,0,1,.95-.31,1.64,1.64,0,0,1,.83.19,1.11,1.11,0,0,1,.5.55l-.52.32a.93.93,0,0,0-.33-.4,1,1,0,0,0-.52-.14.71.71,0,0,0-.46.16.54.54,0,0,0-.17.4c0,.23.24.42.74.58l.22.06a2.14,2.14,0,0,1,.84.45.92.92,0,0,1,.24.66,1.1,1.1,0,0,1-.38.86,1.41,1.41,0,0,1-1,.32,1.82,1.82,0,0,1-.88-.19A1.46,1.46,0,0,1,308.75,105.83Z" style="fill:#808181"/><path d="M317.14,105.83l.55-.37a1.09,1.09,0,0,0,.39.45,1,1,0,0,0,.56.15.75.75,0,0,0,.5-.16.49.49,0,0,0,.2-.4.45.45,0,0,0-.14-.33,1.09,1.09,0,0,0-.45-.24l-.11,0q-1.35-.47-1.35-1.17a1,1,0,0,1,.36-.81,1.41,1.41,0,0,1,1-.31,1.64,1.64,0,0,1,.83.19,1.11,1.11,0,0,1,.5.55l-.52.32a.93.93,0,0,0-.33-.4,1,1,0,0,0-.52-.14.71.71,0,0,0-.46.16.54.54,0,0,0-.17.4c0,.23.24.42.74.58l.22.06a2.14,2.14,0,0,1,.84.45.92.92,0,0,1,.24.66,1.1,1.1,0,0,1-.38.86,1.41,1.41,0,0,1-1,.32,1.82,1.82,0,0,1-.88-.19A1.46,1.46,0,0,1,317.14,105.83Z" style="fill:#808181"/></svg>