<svg id="Ebene_1" data-name="Ebene 1" xmlns="http://www.w3.org/2000/svg" viewBox="0 0 64 64"><title>icon_gesundheits_coach</title><path d="M30.6,18.15c2.61,2,6.63,1.07,9-2s2.15-7.22-.45-9.19-6.62-1.06-9,2S28,16.18,30.6,18.15Z" style="fill:#0396d2"/><path d="M24.7,5.87C14.18,42.5,18.9,49.77,35.78,63.59c-10.33-11.91-5.58-19.82-.91-26.4C40.19,29.69,61.07,17.25,62.12,0,55.22,15.45,21.62,41.47,24.7,5.87Z" style="fill:#0396d2"/><path d="M38.5,62.88c-.42-4.1.59-7.37,2.36-11,3.65-7.42-2.22-15.26-2.22-15.26a69.33,69.33,0,0,1-5.57,6.85c-5.94,6.8,2.08,17,3.14,18.57-2-8.87-.79-13-.79-13S35.83,58.42,38.5,62.88Z" style="fill:#93c04b"/><path d="M23.31,54.84a41.56,41.56,0,0,1-5.67-3.69C6,42.16,1.28,28.81,7.07,21.34c2.87-3.72,7.81-5.28,13.48-4.8q.22-1.06.48-2.16c-6.89-.54-12.88,1.42-16.32,6-6.74,9-1,24.69,12.81,35.06a44.46,44.46,0,0,0,14.85,7.41A81.29,81.29,0,0,1,23.31,54.84Z" style="fill:#93c04b"/><path d="M48,28.23c-.91.85-1.81,1.66-2.67,2.45,6.48,8.09,8.32,17.43,3.84,23.22a13.2,13.2,0,0,1-9.34,4.77c-.08,2.93.52,4.5,1.09,5.33,5.85,0,10.85-2,13.87-6.07C60.43,50.38,57.3,38.11,48,28.23Z" style="fill:#93c04b"/></svg>